<svg width="24" height="24" viewBox="0 0 24 24" fill="none" xmlns="http://www.w3.org/2000/svg">
<path d="M22 11H20V9C20 7.9 19.1 7 18 7H6C4.9 7 4 7.9 4 9V11H2V13H4V15C4 16.1 4.9 17 6 17H18C19.1 17 20 16.1 20 15V13H22V11ZM18 15H6V9H18V15Z" fill="currentColor"/>
<path d="M7 10H17V14H7V10Z" fill="currentColor"/>
<path d="M8 11H9V13H8V11Z" fill="currentColor"/>
<path d="M10 11H11V13H10V11Z" fill="currentColor"/>
<path d="M12 11H13V13H12V11Z" fill="currentColor"/>
<path d="M14 11H15V13H14V11Z" fill="currentColor"/>
<path d="M16 11H17V13H16V11Z" fill="currentColor"/>
</svg>
