<?xml version="1.0" encoding="UTF-8"?>
<svg width="24px" height="24px" viewBox="0 0 24 24" version="1.1" xmlns="http://www.w3.org/2000/svg">
    <g stroke="none" stroke-width="1" fill="none" fill-rule="evenodd">
        <path d="M17,11 L17,5 C17,3.9 16.1,3 15,3 L9,3 C7.9,3 7,3.9 7,5 L7,7 L5,7 C3.9,7 3,7.9 3,9 L3,19 L10,19 L10,15 L14,15 L14,19 L21,19 L21,11 L17,11 Z M7,19 L5,19 L5,17 L7,17 L7,19 Z M7,15 L5,15 L5,13 L7,13 L7,15 Z M7,11 L5,11 L5,9 L7,9 L7,11 Z M11,13 L9,13 L9,11 L11,11 L11,13 Z M11,9 L9,9 L9,7 L11,7 L11,9 Z M11,5 L9,5 L9,5 L11,5 L11,5 Z M15,13 L13,13 L13,11 L15,11 L15,13 Z M15,9 L13,9 L13,7 L15,7 L15,9 Z M15,5 L13,5 L13,5 L15,5 L15,5 Z M19,19 L17,19 L17,17 L19,17 L19,19 Z M19,15 L17,15 L17,13 L19,13 L19,15 Z" stroke="currentColor" stroke-width="1.5" stroke-linecap="round" stroke-linejoin="round"/>
    </g>
</svg>
