<svg width="24" height="24" viewBox="0 0 24 24" fill="none" xmlns="http://www.w3.org/2000/svg">
<path d="M9 17C9.5 17 10 16.5 10 16S9.5 15 9 15 8 15.5 8 16 8.5 17 9 17Z" fill="currentColor"/>
<path d="M13 17C13.5 17 14 16.5 14 16S13.5 15 13 15 12 15.5 12 16 12.5 17 13 17Z" fill="currentColor"/>
<path d="M17 17C17.5 17 18 16.5 18 16S17.5 15 17 15 16 15.5 16 16 16.5 17 17 17Z" fill="currentColor"/>
<path d="M20 13V11C20 10.45 19.55 10 19 10H18V9C18 5.69 15.31 3 12 3S6 5.69 6 9V10H5C4.45 10 4 10.45 4 11V13C4 13.55 4.45 14 5 14H6V18C6 19.1 6.9 20 8 20H16C17.1 20 18 19.1 18 18V14H19C19.55 14 20 13.55 20 13ZM8 9C8 6.79 9.79 5 12 5S16 6.79 16 9V10H8V9ZM16 18H8V12H16V18Z" fill="currentColor"/>
</svg>
