<svg width="24" height="24" viewBox="0 0 24 24" fill="none" xmlns="http://www.w3.org/2000/svg">
<path d="M21 10.78V8C21 6.9 20.1 6 19 6H14V4C14 2.9 13.1 2 12 2H8C6.9 2 6 2.9 6 4V6H5C3.9 6 3 6.9 3 8V19C3 20.1 3.9 21 5 21H19C20.1 21 21 20.1 21 19V12.22C21.59 11.83 22 11.23 22 10.5C22 9.67 21.33 9 20.5 9C19.67 9 19 9.67 19 10.5C19 11.23 19.41 11.83 20 12.22V19H4V8H6V6H8V4H12V6H14V8H19V10.78Z" fill="currentColor"/>
<path d="M7 9C8.1 9 9 9.9 9 11S8.1 13 7 13 5 12.1 5 11 5.9 9 7 9Z" fill="currentColor"/>
<path d="M17 9C18.1 9 19 9.9 19 11S18.1 13 17 13 15 12.1 15 11 15.9 9 17 9Z" fill="currentColor"/>
</svg>
