<?xml version="1.0" encoding="UTF-8"?>
<svg width="24px" height="24px" viewBox="0 0 24 24" version="1.1" xmlns="http://www.w3.org/2000/svg">
    <g stroke="none" stroke-width="1" fill="none" fill-rule="evenodd">
        <path d="M19,7 L19,3 L5,3 L5,7 L2,7 L2,21 L22,21 L22,7 L19,7 Z M7,5 L17,5 L17,7 L7,7 L7,5 Z M5,19 L3,19 L3,17 L5,17 L5,19 Z M5,15 L3,15 L3,13 L5,13 L5,15 Z M5,11 L3,11 L3,9 L5,9 L5,11 Z M9,19 L7,19 L7,17 L9,17 L9,19 Z M9,15 L7,15 L7,13 L9,13 L9,15 Z M9,11 L7,11 L7,9 L9,9 L9,11 Z M13,19 L11,19 L11,17 L13,17 L13,19 Z M13,15 L11,15 L11,13 L13,13 L13,15 Z M13,11 L11,11 L11,9 L13,9 L13,11 Z M17,19 L15,19 L15,17 L17,17 L17,19 Z M17,15 L15,15 L15,13 L17,13 L17,15 Z M17,11 L15,11 L15,9 L17,9 L17,11 Z M21,19 L19,19 L19,17 L21,17 L21,19 Z M21,15 L19,15 L19,13 L21,13 L21,15 Z M21,11 L19,11 L19,9 L21,9 L21,11 Z" stroke="currentColor" stroke-width="1.5" stroke-linecap="round" stroke-linejoin="round"/>
    </g>
</svg>
