<?xml version="1.0" encoding="UTF-8"?>
<svg width="24px" height="24px" viewBox="0 0 24 24" version="1.1" xmlns="http://www.w3.org/2000/svg">
    <g stroke="none" stroke-width="1" fill="none" fill-rule="evenodd">
        <path d="M3,10.5 L12,3 L21,10.5 L21,20 C21,20.5523 20.5523,21 20,21 L15,21 C14.4477,21 14,20.5523 14,20 L14,16 C14,15.4477 13.5523,15 13,15 L11,15 C10.4477,15 10,15.4477 10,16 L10,20 C10,20.5523 9.55228,21 9,21 L4,21 C3.44772,21 3,20.5523 3,20 L3,10.5 Z" stroke="currentColor" stroke-width="1.5" stroke-linecap="round" stroke-linejoin="round"/>
        <path d="M9,13 L9,13 C9.55228,13 10,12.5523 10,12 L10,10 C10,9.44772 9.55228,9 9,9 L7,9 C6.44772,9 6,9.44772 6,10 L6,12 C6,12.5523 6.44772,13 7,13 L9,13 Z" stroke="currentColor" stroke-width="1.5" stroke-linecap="round" stroke-linejoin="round"/>
        <path d="M17,13 L17,13 C17.5523,13 18,12.5523 18,12 L18,10 C18,9.44772 17.5523,9 17,9 L15,9 C14.4477,9 14,9.44772 14,10 L14,12 C14,12.5523 14.4477,13 15,13 L17,13 Z" stroke="currentColor" stroke-width="1.5" stroke-linecap="round" stroke-linejoin="round"/>
    </g>
</svg>
