<svg width="24" height="24" viewBox="0 0 24 24" fill="none" xmlns="http://www.w3.org/2000/svg">
<path d="M18 2.01L6 2C4.9 2 4 2.9 4 4V20C4 21.1 4.9 22 6 22H18C19.1 22 20 21.1 20 20V4C20 2.9 19.1 2.01 18 2.01ZM18 20H6V8H18V20ZM6 6V4H18V6H6Z" fill="currentColor"/>
<path d="M8 9H10V11H8V9Z" fill="currentColor"/>
<path d="M8 12H10V14H8V12Z" fill="currentColor"/>
<path d="M8 15H10V17H8V15Z" fill="currentColor"/>
<path d="M11 9H16V11H11V9Z" fill="currentColor"/>
<path d="M11 12H16V14H11V12Z" fill="currentColor"/>
<path d="M11 15H16V17H11V15Z" fill="currentColor"/>
</svg>
