<?xml version="1.0" encoding="UTF-8"?>
<svg width="24px" height="24px" viewBox="0 0 24 24" version="1.1" xmlns="http://www.w3.org/2000/svg">
    <g stroke="none" stroke-width="1" fill="none" fill-rule="evenodd">
        <path d="M12,15 C13.6568542,15 15,13.6568542 15,12 C15,10.3431458 13.6568542,9 12,9 C10.3431458,9 9,10.3431458 9,12 C9,13.6568542 10.3431458,15 12,15 Z" stroke="currentColor" stroke-width="2" stroke-linecap="round" stroke-linejoin="round"/>
        <path d="M19.4,15 C19.2669864,15.3045925 19.2669864,15.6454075 19.4,15.95 L21.4,19.05 C21.5555556,19.3833333 21.5555556,19.7833333 21.4,20.15 C21.0592593,20.9833333 20.2592593,21.9833333 19.3,22.15 C18.9666667,22.2166667 18.6333333,22.15 18.3,21.95 L15.2,20.25 C14.8954075,20.1169864 14.5545925,20.1169864 14.25,20.25 C13.9454075,20.3830136 13.6045925,20.3830136 13.3,20.25 L10.2,21.95 C9.86666667,22.15 9.53333333,22.2166667 9.2,22.15 C8.24074074,21.9833333 7.44074074,20.9833333 7.1,20.15 C6.94444444,19.7833333 6.94444444,19.3833333 7.1,19.05 L9.1,15.95 C9.23301359,15.6454075 9.23301359,15.3045925 9.1,15 C8.96698641,14.6954075 8.96698641,14.3545925 9.1,14.05 L7.1,10.95 C6.94444444,10.6166667 6.94444444,10.2166667 7.1,9.85 C7.44074074,9.01666667 8.24074074,8.01666667 9.2,7.85 C9.53333333,7.78333333 9.86666667,7.85 10.2,8.05 L13.3,9.75 C13.6045925,9.88301359 13.9454075,9.88301359 14.25,9.75 C14.5545925,9.61698641 14.8954075,9.61698641 15.2,9.75 L18.3,8.05 C18.6333333,7.85 18.9666667,7.78333333 19.3,7.85 C20.2592593,8.01666667 21.0592593,9.01666667 21.4,9.85 C21.5555556,10.2166667 21.5555556,10.6166667 21.4,10.95 L19.4,14.05 C19.2669864,14.3545925 19.2669864,14.6954075 19.4,15 Z" stroke="currentColor" stroke-width="2" stroke-linecap="round" stroke-linejoin="round"/>
    </g>
</svg>
