<?xml version="1.0" encoding="UTF-8"?>
<svg width="24px" height="24px" viewBox="0 0 24 24" version="1.1" xmlns="http://www.w3.org/2000/svg">
    <g stroke="none" stroke-width="1" fill="none" fill-rule="evenodd">
        <path d="M17,21 L17,19 C17,16.7909 15.2091,15 13,15 L7,15 C4.79086,15 3,16.7909 3,19 L3,21" stroke="currentColor" stroke-width="1.5" stroke-linecap="round" stroke-linejoin="round"/>
        <path d="M10,11 C12.2091,11 14,9.20914 14,7 C14,4.79086 12.2091,3 10,3 C7.79086,3 6,4.79086 6,7 C6,9.20914 7.79086,11 10,11 Z" stroke="currentColor" stroke-width="1.5" stroke-linecap="round" stroke-linejoin="round"/>
        <path d="M21,21 L21,19 C20.9986,17.1767 19.765,15.5857 18,15.13" stroke="currentColor" stroke-width="1.5" stroke-linecap="round" stroke-linejoin="round"/>
        <path d="M15,3.13 C16.7699,3.58317 18.0078,5.17799 18.0078,7.005 C18.0078,8.83201 16.7699,10.4268 15,10.88" stroke="currentColor" stroke-width="1.5" stroke-linecap="round" stroke-linejoin="round"/>
    </g>
</svg>
