<svg xmlns="http://www.w3.org/2000/svg" xmlns:xlink="http://www.w3.org/1999/xlink" width="500" zoomAndPan="magnify" viewBox="0 0 375 374.999991" height="500" preserveAspectRatio="xMidYMid meet" version="1.0"><defs><g/><clipPath id="e6cce9285f"><path d="M 62.597656 158 L 140 158 L 140 198 L 62.597656 198 Z M 62.597656 158 " clip-rule="nonzero"/></clipPath><clipPath id="f741b652af"><path d="M 235 165 L 312.347656 165 L 312.347656 205 L 235 205 Z M 235 165 " clip-rule="nonzero"/></clipPath><clipPath id="8ce38e1178"><path d="M 201 118.3125 L 224 118.3125 L 224 131 L 201 131 Z M 201 118.3125 " clip-rule="nonzero"/></clipPath><clipPath id="fe5ffda7d1"><path d="M 72 125 L 301 125 L 301 209.8125 L 72 209.8125 Z M 72 125 " clip-rule="nonzero"/></clipPath></defs><g clip-path="url(#e6cce9285f)"><path fill="#038144" d="M 70.5625 197.953125 L 110.542969 163.769531 L 139.410156 187.910156 L 109.011719 158.054688 L 62.597656 197.953125 Z M 70.5625 197.953125 " fill-opacity="1" fill-rule="evenodd"/></g><path fill="#038144" d="M 269.128906 199.152344 L 278.183594 199.152344 L 278.183594 208.292969 L 269.128906 208.292969 Z M 269.128906 199.152344 " fill-opacity="1" fill-rule="evenodd"/><path fill="#038144" d="M 258.769531 199.152344 L 267.804688 199.152344 L 267.804688 208.292969 L 258.769531 208.292969 Z M 258.769531 199.152344 " fill-opacity="1" fill-rule="evenodd"/><path fill="#038144" d="M 258.769531 188.667969 L 267.804688 188.667969 L 267.804688 197.808594 L 258.769531 197.808594 Z M 258.769531 188.667969 " fill-opacity="1" fill-rule="evenodd"/><path fill="#038144" d="M 269.128906 188.667969 L 278.183594 188.667969 L 278.183594 197.808594 L 269.128906 197.808594 Z M 269.128906 188.667969 " fill-opacity="1" fill-rule="evenodd"/><g clip-path="url(#f741b652af)"><path fill="#038144" d="M 265.894531 165.222656 L 235.027344 195.054688 L 264.171875 171.355469 L 304.171875 204.847656 L 312.386719 204.847656 Z M 265.894531 165.222656 " fill-opacity="1" fill-rule="evenodd"/></g><g clip-path="url(#8ce38e1178)"><path fill="#038144" d="M 208.621094 122.550781 L 223.199219 130.175781 L 223.199219 126.519531 L 208.34375 118.429688 L 201.519531 124.335938 L 201.519531 128.769531 Z M 208.621094 122.550781 " fill-opacity="1" fill-rule="evenodd"/></g><g clip-path="url(#fe5ffda7d1)"><path fill="#038144" d="M 210.785156 209.363281 L 265.347656 156.164062 L 300.371094 183.667969 L 268.140625 153.183594 L 244.988281 157.699219 L 227.003906 140.722656 L 222.339844 140.722656 L 222.339844 132.464844 L 208.621094 125.28125 L 208.621094 141.730469 L 203.996094 135.535156 L 166.011719 126.308594 L 148.636719 142.949219 L 167.902344 128.390625 L 210.613281 167.113281 L 200.570312 168.917969 L 191.621094 175.789062 L 175.695312 162.761719 L 107.015625 146.121094 L 72.535156 177.699219 L 109.386719 148.769531 L 162.566406 201.042969 L 152.710938 209.363281 Z M 210.785156 209.363281 " fill-opacity="1" fill-rule="evenodd"/></g><path fill="#038144" d="M 169.097656 136.164062 L 149.582031 151.941406 L 154.328125 153.875 C 154.328125 153.875 169.265625 139.460938 169.265625 139.695312 C 169.265625 139.925781 194.773438 161.503906 194.773438 161.503906 Z M 169.097656 136.164062 " fill-opacity="1" fill-rule="evenodd"/><path fill="#038144" d="M 164.625 146.605469 L 168.59375 146.605469 L 168.59375 150.617188 L 164.625 150.617188 Z M 164.625 146.605469 " fill-opacity="1" fill-rule="evenodd"/><path fill="#038144" d="M 164.625 151.207031 L 168.59375 151.207031 L 168.59375 155.21875 L 164.625 155.21875 Z M 164.625 151.207031 " fill-opacity="1" fill-rule="evenodd"/><path fill="#038144" d="M 169.183594 151.207031 L 173.152344 151.207031 L 173.152344 155.21875 L 169.183594 155.21875 Z M 169.183594 151.207031 " fill-opacity="1" fill-rule="evenodd"/><path fill="#038144" d="M 169.183594 146.605469 L 173.152344 146.605469 L 173.152344 150.617188 L 169.183594 150.617188 Z M 169.183594 146.605469 " fill-opacity="1" fill-rule="evenodd"/><path fill="#038144" d="M 109.117188 194.570312 L 118.148438 194.570312 L 118.148438 203.710938 L 109.117188 203.710938 Z M 109.117188 194.570312 " fill-opacity="1" fill-rule="evenodd"/><path fill="#038144" d="M 98.734375 194.570312 L 107.769531 194.570312 L 107.769531 203.710938 L 98.734375 203.710938 Z M 98.734375 194.570312 " fill-opacity="1" fill-rule="evenodd"/><path fill="#038144" d="M 98.734375 184.085938 L 107.769531 184.085938 L 107.769531 193.25 L 98.734375 193.25 Z M 98.734375 184.085938 " fill-opacity="1" fill-rule="evenodd"/><path fill="#038144" d="M 109.117188 184.085938 L 118.148438 184.085938 L 118.148438 193.25 L 109.117188 193.25 Z M 109.117188 184.085938 " fill-opacity="1" fill-rule="evenodd"/><g fill="#000000" fill-opacity="1"><g transform="translate(86.367186, 237.989046)"><g><path d="M 6.984375 0.453125 C 5.171875 0.453125 3.800781 -0.0390625 2.875 -1.03125 C 1.957031 -2.019531 1.5 -3.394531 1.5 -5.15625 L 1.5 -14.40625 L 6.546875 -14.40625 L 6.546875 -5.8125 C 6.546875 -5.28125 6.660156 -4.84375 6.890625 -4.5 C 7.117188 -4.15625 7.398438 -3.910156 7.734375 -3.765625 C 8.078125 -3.617188 8.390625 -3.546875 8.671875 -3.546875 C 8.992188 -3.546875 9.332031 -3.613281 9.6875 -3.75 C 10.050781 -3.882812 10.367188 -4.113281 10.640625 -4.4375 C 10.910156 -4.757812 11.050781 -5.191406 11.0625 -5.734375 L 11.0625 -14.40625 L 16.109375 -14.40625 L 16.109375 0 L 11.0625 0 L 11.0625 -1.40625 C 10.625 -0.90625 10.03125 -0.46875 9.28125 -0.09375 C 8.53125 0.269531 7.765625 0.453125 6.984375 0.453125 Z M 6.984375 0.453125 "/></g></g></g><g fill="#000000" fill-opacity="1"><g transform="translate(103.97717, 237.989046)"><g><path d="M 10.65625 -14.875 C 12.488281 -14.875 13.859375 -14.378906 14.765625 -13.390625 C 15.679688 -12.398438 16.140625 -11.015625 16.140625 -9.234375 L 16.140625 0 L 11.0625 0 L 11.09375 -8.609375 C 11.09375 -9.171875 10.976562 -9.613281 10.75 -9.9375 C 10.519531 -10.269531 10.234375 -10.507812 9.890625 -10.65625 C 9.554688 -10.8125 9.238281 -10.890625 8.9375 -10.890625 C 8.632812 -10.890625 8.296875 -10.816406 7.921875 -10.671875 C 7.554688 -10.535156 7.242188 -10.304688 6.984375 -9.984375 C 6.722656 -9.671875 6.582031 -9.242188 6.5625 -8.703125 L 6.5625 0 L 1.5 0 L 1.5 -14.40625 L 6.5625 -14.40625 L 6.5625 -13.015625 C 7.007812 -13.515625 7.601562 -13.945312 8.34375 -14.3125 C 9.082031 -14.6875 9.851562 -14.875 10.65625 -14.875 Z M 10.65625 -14.875 "/></g></g></g><g fill="#000000" fill-opacity="1"><g transform="translate(121.617149, 237.989046)"><g><path d="M 6.515625 -18.5625 C 6.515625 -17.882812 6.269531 -17.300781 5.78125 -16.8125 C 5.300781 -16.320312 4.710938 -16.078125 4.015625 -16.078125 C 3.335938 -16.078125 2.753906 -16.320312 2.265625 -16.8125 C 1.773438 -17.300781 1.53125 -17.882812 1.53125 -18.5625 C 1.53125 -19.269531 1.773438 -19.863281 2.265625 -20.34375 C 2.753906 -20.820312 3.335938 -21.0625 4.015625 -21.0625 C 4.710938 -21.0625 5.300781 -20.820312 5.78125 -20.34375 C 6.269531 -19.863281 6.515625 -19.269531 6.515625 -18.5625 Z M 6.546875 -14.40625 L 6.546875 0 L 1.5 0 L 1.5 -14.40625 Z M 6.546875 -14.40625 "/></g></g></g><g fill="#000000" fill-opacity="1"><g transform="translate(129.657138, 237.989046)"><g><path d="M 14.875 -21 L 20.609375 -21 L 20.609375 0 L 14.875 0 L 14.875 -8.0625 L 7.828125 -8.0625 L 7.828125 0 L 2.09375 0 L 2.09375 -21 L 7.828125 -21 L 7.828125 -12.9375 L 14.875 -12.9375 Z M 14.875 -21 "/></g></g></g><g fill="#000000" fill-opacity="1"><g transform="translate(151.76711, 237.989046)"><g><path d="M 8.703125 -14.875 C 9.765625 -14.875 10.765625 -14.675781 11.703125 -14.28125 C 12.640625 -13.882812 13.46875 -13.332031 14.1875 -12.625 C 14.90625 -11.925781 15.46875 -11.113281 15.875 -10.1875 C 16.289062 -9.257812 16.5 -8.265625 16.5 -7.203125 C 16.5 -6.140625 16.289062 -5.144531 15.875 -4.21875 C 15.46875 -3.300781 14.90625 -2.492188 14.1875 -1.796875 C 13.46875 -1.097656 12.640625 -0.546875 11.703125 -0.140625 C 10.765625 0.253906 9.765625 0.453125 8.703125 0.453125 C 7.640625 0.453125 6.640625 0.253906 5.703125 -0.140625 C 4.765625 -0.546875 3.929688 -1.097656 3.203125 -1.796875 C 2.484375 -2.492188 1.921875 -3.300781 1.515625 -4.21875 C 1.109375 -5.144531 0.90625 -6.140625 0.90625 -7.203125 C 0.90625 -8.265625 1.109375 -9.257812 1.515625 -10.1875 C 1.921875 -11.113281 2.484375 -11.925781 3.203125 -12.625 C 3.929688 -13.332031 4.765625 -13.882812 5.703125 -14.28125 C 6.640625 -14.675781 7.640625 -14.875 8.703125 -14.875 Z M 8.703125 -4.140625 C 9.554688 -4.140625 10.285156 -4.4375 10.890625 -5.03125 C 11.492188 -5.632812 11.796875 -6.359375 11.796875 -7.203125 C 11.796875 -8.054688 11.492188 -8.785156 10.890625 -9.390625 C 10.285156 -9.992188 9.554688 -10.296875 8.703125 -10.296875 C 7.835938 -10.296875 7.101562 -9.992188 6.5 -9.390625 C 5.90625 -8.785156 5.609375 -8.054688 5.609375 -7.203125 C 5.609375 -6.359375 5.90625 -5.632812 6.5 -5.03125 C 7.101562 -4.4375 7.835938 -4.140625 8.703125 -4.140625 Z M 8.703125 -4.140625 "/></g></g></g><g fill="#000000" fill-opacity="1"><g transform="translate(168.8671, 237.989046)"><g><path d="M 6.984375 0.453125 C 5.171875 0.453125 3.800781 -0.0390625 2.875 -1.03125 C 1.957031 -2.019531 1.5 -3.394531 1.5 -5.15625 L 1.5 -14.40625 L 6.546875 -14.40625 L 6.546875 -5.8125 C 6.546875 -5.28125 6.660156 -4.84375 6.890625 -4.5 C 7.117188 -4.15625 7.398438 -3.910156 7.734375 -3.765625 C 8.078125 -3.617188 8.390625 -3.546875 8.671875 -3.546875 C 8.992188 -3.546875 9.332031 -3.613281 9.6875 -3.75 C 10.050781 -3.882812 10.367188 -4.113281 10.640625 -4.4375 C 10.910156 -4.757812 11.050781 -5.191406 11.0625 -5.734375 L 11.0625 -14.40625 L 16.109375 -14.40625 L 16.109375 0 L 11.0625 0 L 11.0625 -1.40625 C 10.625 -0.90625 10.03125 -0.46875 9.28125 -0.09375 C 8.53125 0.269531 7.765625 0.453125 6.984375 0.453125 Z M 6.984375 0.453125 "/></g></g></g><g fill="#000000" fill-opacity="1"><g transform="translate(185.577087, 237.989046)"><g><path d="M 6.8125 -10.3125 C 6.8125 -9.976562 6.96875 -9.707031 7.28125 -9.5 C 7.601562 -9.289062 8.007812 -9.101562 8.5 -8.9375 C 8.988281 -8.78125 9.507812 -8.59375 10.0625 -8.375 C 10.613281 -8.164062 11.132812 -7.894531 11.625 -7.5625 C 12.113281 -7.238281 12.515625 -6.800781 12.828125 -6.25 C 13.140625 -5.707031 13.296875 -5.015625 13.296875 -4.171875 C 13.273438 -2.828125 12.757812 -1.71875 11.75 -0.84375 C 10.738281 0.0195312 9.179688 0.453125 7.078125 0.453125 C 6.460938 0.453125 5.785156 0.367188 5.046875 0.203125 C 4.304688 0.046875 3.570312 -0.179688 2.84375 -0.484375 C 2.125 -0.785156 1.476562 -1.144531 0.90625 -1.5625 L 2.4375 -4.890625 C 2.988281 -4.472656 3.585938 -4.132812 4.234375 -3.875 C 4.890625 -3.613281 5.507812 -3.4375 6.09375 -3.34375 C 6.6875 -3.25 7.175781 -3.257812 7.5625 -3.375 C 7.957031 -3.488281 8.175781 -3.691406 8.21875 -3.984375 C 8.257812 -4.367188 8.125 -4.675781 7.8125 -4.90625 C 7.5 -5.132812 7.085938 -5.335938 6.578125 -5.515625 C 6.066406 -5.703125 5.519531 -5.910156 4.9375 -6.140625 C 4.363281 -6.367188 3.820312 -6.671875 3.3125 -7.046875 C 2.800781 -7.429688 2.394531 -7.929688 2.09375 -8.546875 C 1.800781 -9.171875 1.671875 -9.972656 1.703125 -10.953125 C 1.785156 -12.253906 2.378906 -13.273438 3.484375 -14.015625 C 4.597656 -14.753906 6.195312 -15.039062 8.28125 -14.875 C 8.976562 -14.832031 9.671875 -14.726562 10.359375 -14.5625 C 11.054688 -14.394531 11.648438 -14.21875 12.140625 -14.03125 C 12.628906 -13.851562 12.921875 -13.71875 13.015625 -13.625 L 11.546875 -10.265625 C 11.085938 -10.617188 10.582031 -10.878906 10.03125 -11.046875 C 9.476562 -11.222656 8.957031 -11.304688 8.46875 -11.296875 C 7.976562 -11.285156 7.578125 -11.195312 7.265625 -11.03125 C 6.960938 -10.875 6.8125 -10.632812 6.8125 -10.3125 Z M 6.8125 -10.3125 "/></g></g></g><g fill="#000000" fill-opacity="1"><g transform="translate(199.767074, 237.989046)"><g><path d="M 6.515625 -18.5625 C 6.515625 -17.882812 6.269531 -17.300781 5.78125 -16.8125 C 5.300781 -16.320312 4.710938 -16.078125 4.015625 -16.078125 C 3.335938 -16.078125 2.753906 -16.320312 2.265625 -16.8125 C 1.773438 -17.300781 1.53125 -17.882812 1.53125 -18.5625 C 1.53125 -19.269531 1.773438 -19.863281 2.265625 -20.34375 C 2.753906 -20.820312 3.335938 -21.0625 4.015625 -21.0625 C 4.710938 -21.0625 5.300781 -20.820312 5.78125 -20.34375 C 6.269531 -19.863281 6.515625 -19.269531 6.515625 -18.5625 Z M 6.546875 -14.40625 L 6.546875 0 L 1.5 0 L 1.5 -14.40625 Z M 6.546875 -14.40625 "/></g></g></g><g fill="#000000" fill-opacity="1"><g transform="translate(207.807063, 237.989046)"><g><path d="M 10.65625 -14.875 C 12.488281 -14.875 13.859375 -14.378906 14.765625 -13.390625 C 15.679688 -12.398438 16.140625 -11.015625 16.140625 -9.234375 L 16.140625 0 L 11.0625 0 L 11.09375 -8.609375 C 11.09375 -9.171875 10.976562 -9.613281 10.75 -9.9375 C 10.519531 -10.269531 10.234375 -10.507812 9.890625 -10.65625 C 9.554688 -10.8125 9.238281 -10.890625 8.9375 -10.890625 C 8.632812 -10.890625 8.296875 -10.816406 7.921875 -10.671875 C 7.554688 -10.535156 7.242188 -10.304688 6.984375 -9.984375 C 6.722656 -9.671875 6.582031 -9.242188 6.5625 -8.703125 L 6.5625 0 L 1.5 0 L 1.5 -14.40625 L 6.5625 -14.40625 L 6.5625 -13.015625 C 7.007812 -13.515625 7.601562 -13.945312 8.34375 -14.3125 C 9.082031 -14.6875 9.851562 -14.875 10.65625 -14.875 Z M 10.65625 -14.875 "/></g></g></g><g fill="#000000" fill-opacity="1"><g transform="translate(225.147046, 237.989046)"><g><path d="M 16.625 -14.40625 L 16.625 -1.6875 C 16.625 -0.21875 16.484375 1.0625 16.203125 2.15625 C 15.921875 3.257812 15.425781 4.1875 14.71875 4.9375 C 14.007812 5.6875 13.023438 6.25 11.765625 6.625 C 11.023438 6.84375 10.226562 6.976562 9.375 7.03125 C 8.519531 7.082031 7.710938 7.066406 6.953125 6.984375 C 6.015625 6.890625 5.066406 6.632812 4.109375 6.21875 C 3.148438 5.8125 2.269531 5.359375 1.46875 4.859375 L 3.03125 1.4375 C 3.613281 1.820312 4.222656 2.148438 4.859375 2.421875 C 5.492188 2.703125 6.144531 2.863281 6.8125 2.90625 C 7.925781 3.007812 8.820312 2.953125 9.5 2.734375 C 10.1875 2.515625 10.6875 2.1875 11 1.75 C 11.320312 1.320312 11.503906 0.867188 11.546875 0.390625 C 11.566406 0.171875 11.578125 -0.078125 11.578125 -0.359375 C 11.578125 -0.640625 11.578125 -0.789062 11.578125 -0.8125 C 10.992188 -0.40625 10.359375 -0.0859375 9.671875 0.140625 C 8.984375 0.367188 8.257812 0.484375 7.5 0.484375 C 6.15625 0.484375 4.988281 0.140625 4 -0.546875 C 3.007812 -1.242188 2.242188 -2.175781 1.703125 -3.34375 C 1.171875 -4.507812 0.90625 -5.796875 0.90625 -7.203125 C 0.90625 -8.617188 1.171875 -9.90625 1.703125 -11.0625 C 2.242188 -12.226562 3.007812 -13.15625 4 -13.84375 C 4.988281 -14.53125 6.15625 -14.875 7.5 -14.875 C 8.019531 -14.875 8.554688 -14.78125 9.109375 -14.59375 C 9.671875 -14.40625 10.179688 -14.171875 10.640625 -13.890625 C 11.109375 -13.609375 11.421875 -13.316406 11.578125 -13.015625 L 11.578125 -14.40625 Z M 8.703125 -3.875 C 9.503906 -3.875 10.179688 -4.203125 10.734375 -4.859375 C 11.296875 -5.515625 11.578125 -6.304688 11.578125 -7.234375 C 11.578125 -8.148438 11.296875 -8.929688 10.734375 -9.578125 C 10.179688 -10.234375 9.503906 -10.5625 8.703125 -10.5625 C 7.921875 -10.5625 7.265625 -10.234375 6.734375 -9.578125 C 6.203125 -8.929688 5.9375 -8.148438 5.9375 -7.234375 C 5.9375 -6.304688 6.203125 -5.515625 6.734375 -4.859375 C 7.265625 -4.203125 7.921875 -3.875 8.703125 -3.875 Z M 8.703125 -3.875 "/></g></g></g><g fill="#038144" fill-opacity="1"><g transform="translate(243.269523, 237.989046)"><g><path d="M 2.09375 -21 L 7.203125 -21 L 14.484375 -9.875 L 14.484375 -21 L 20.25 -21 L 20.25 0 L 15.15625 0 L 7.859375 -11.15625 L 7.859375 0 L 2.09375 0 Z M 2.09375 -21 "/></g></g></g><g fill="#038144" fill-opacity="1"><g transform="translate(265.619502, 237.989046)"><g><path d="M 11.125 -12.9375 L 21.203125 -12.9375 L 21.203125 -2.15625 C 20.503906 -1.613281 19.675781 -1.148438 18.71875 -0.765625 C 17.757812 -0.378906 16.765625 -0.0820312 15.734375 0.125 C 14.703125 0.34375 13.726562 0.453125 12.8125 0.453125 C 11.113281 0.453125 9.535156 0.179688 8.078125 -0.359375 C 6.628906 -0.898438 5.367188 -1.664062 4.296875 -2.65625 C 3.234375 -3.644531 2.398438 -4.800781 1.796875 -6.125 C 1.203125 -7.457031 0.90625 -8.914062 0.90625 -10.5 C 0.90625 -12.101562 1.21875 -13.566406 1.84375 -14.890625 C 2.476562 -16.222656 3.351562 -17.382812 4.46875 -18.375 C 5.59375 -19.363281 6.894531 -20.128906 8.375 -20.671875 C 9.851562 -21.210938 11.441406 -21.484375 13.140625 -21.484375 C 14.503906 -21.484375 15.769531 -21.242188 16.9375 -20.765625 C 18.101562 -20.296875 19.207031 -19.65625 20.25 -18.84375 L 17.4375 -14.84375 C 16.8125 -15.3125 16.132812 -15.679688 15.40625 -15.953125 C 14.675781 -16.234375 13.921875 -16.375 13.140625 -16.375 C 11.941406 -16.375 10.835938 -16.109375 9.828125 -15.578125 C 8.816406 -15.054688 8.003906 -14.351562 7.390625 -13.46875 C 6.785156 -12.59375 6.484375 -11.601562 6.484375 -10.5 C 6.484375 -9.414062 6.757812 -8.425781 7.3125 -7.53125 C 7.875 -6.644531 8.628906 -5.9375 9.578125 -5.40625 C 10.535156 -4.882812 11.613281 -4.625 12.8125 -4.625 C 13.332031 -4.625 13.832031 -4.65625 14.3125 -4.71875 C 14.789062 -4.789062 15.300781 -4.898438 15.84375 -5.046875 L 15.84375 -8.0625 L 11.125 -8.0625 Z M 11.125 -12.9375 "/></g></g></g></svg>